<mxfile host="app.diagrams.net" agent="Mozilla/5.0 (Windows NT 10.0; Win64; x64) AppleWebKit/537.36 (KHTML, like Gecko) Chrome/127.0.0.0 Safari/537.36 Edg/127.0.0.0" version="24.7.6">
  <diagram name="Pagina-1" id="tw1TcQoVnoIa0f1URedQ">
    <mxGraphModel dx="1155" dy="631" grid="1" gridSize="10" guides="1" tooltips="1" connect="1" arrows="1" fold="1" page="1" pageScale="1" pageWidth="827" pageHeight="1169" math="0" shadow="0">
      <root>
        <mxCell id="0" />
        <mxCell id="1" parent="0" />
        <mxCell id="-R8Ti65tcRxn50G6-DV9-1" value="&lt;font style=&quot;font-size: 24px;&quot;&gt;PC with LabVIEW&lt;/font&gt;" style="rounded=0;whiteSpace=wrap;html=1;rotation=0;fillColor=#365F91;fontColor=#FCFCFC;" vertex="1" parent="1">
          <mxGeometry x="690" y="240" width="260" height="200" as="geometry" />
        </mxCell>
        <mxCell id="-R8Ti65tcRxn50G6-DV9-2" value="&lt;font color=&quot;#ffffff&quot; style=&quot;font-size: 24px;&quot;&gt;BOARD&lt;/font&gt;" style="whiteSpace=wrap;html=1;aspect=fixed;fillColor=#82B366;strokeColor=#000000;" vertex="1" parent="1">
          <mxGeometry y="240" width="200" height="200" as="geometry" />
        </mxCell>
        <mxCell id="-R8Ti65tcRxn50G6-DV9-3" value="&lt;font style=&quot;font-size: 21px;&quot;&gt;Power Source&lt;/font&gt;" style="rounded=1;whiteSpace=wrap;html=1;fontColor=#ffffff;fillColor=#f58021;" vertex="1" parent="1">
          <mxGeometry x="200" y="40" width="200" height="120" as="geometry" />
        </mxCell>
        <mxCell id="-R8Ti65tcRxn50G6-DV9-4" value="" style="curved=1;endArrow=none;html=1;rounded=0;exitX=1;exitY=0.25;exitDx=0;exitDy=0;entryX=0.25;entryY=1;entryDx=0;entryDy=0;exitPerimeter=0;fillColor=#f8cecc;strokeColor=#FF3333;strokeWidth=3;endFill=0;" edge="1" parent="1" source="-R8Ti65tcRxn50G6-DV9-2" target="-R8Ti65tcRxn50G6-DV9-3">
          <mxGeometry width="50" height="50" relative="1" as="geometry">
            <mxPoint x="205" y="290" as="sourcePoint" />
            <mxPoint x="255" y="160" as="targetPoint" />
            <Array as="points">
              <mxPoint x="240" y="300" />
              <mxPoint x="270" y="260" />
              <mxPoint x="270" y="200" />
            </Array>
          </mxGeometry>
        </mxCell>
        <mxCell id="-R8Ti65tcRxn50G6-DV9-5" value="" style="curved=1;endArrow=none;html=1;rounded=0;exitX=1;exitY=0.25;exitDx=0;exitDy=0;fillColor=#f8cecc;strokeColor=#000000;strokeWidth=3;endFill=0;" edge="1" parent="1" source="-R8Ti65tcRxn50G6-DV9-2">
          <mxGeometry width="50" height="50" relative="1" as="geometry">
            <mxPoint x="230" y="290" as="sourcePoint" />
            <mxPoint x="320" y="240" as="targetPoint" />
            <Array as="points">
              <mxPoint x="280" y="320" />
              <mxPoint x="320" y="310" />
              <mxPoint x="330" y="270" />
            </Array>
          </mxGeometry>
        </mxCell>
        <mxCell id="-R8Ti65tcRxn50G6-DV9-6" value="" style="endArrow=none;dashed=1;html=1;dashPattern=1 3;strokeWidth=2;rounded=0;" edge="1" parent="1">
          <mxGeometry width="50" height="50" relative="1" as="geometry">
            <mxPoint x="300" y="210" as="sourcePoint" />
            <mxPoint x="320" y="240" as="targetPoint" />
            <Array as="points">
              <mxPoint x="310" y="220" />
            </Array>
          </mxGeometry>
        </mxCell>
        <mxCell id="-R8Ti65tcRxn50G6-DV9-8" value="" style="endArrow=none;html=1;rounded=0;strokeWidth=3;" edge="1" parent="1">
          <mxGeometry width="50" height="50" relative="1" as="geometry">
            <mxPoint x="290" y="200" as="sourcePoint" />
            <mxPoint x="250" y="160" as="targetPoint" />
          </mxGeometry>
        </mxCell>
        <mxCell id="-R8Ti65tcRxn50G6-DV9-9" value="" style="shape=flexArrow;endArrow=classic;startArrow=classic;html=1;rounded=0;entryX=0;entryY=0.75;entryDx=0;entryDy=0;exitX=1;exitY=0.75;exitDx=0;exitDy=0;strokeWidth=2;endSize=6;targetPerimeterSpacing=0;startWidth=23;startSize=6;width=22;" edge="1" parent="1" source="-R8Ti65tcRxn50G6-DV9-2" target="-R8Ti65tcRxn50G6-DV9-1">
          <mxGeometry width="100" height="100" relative="1" as="geometry">
            <mxPoint x="360" y="410" as="sourcePoint" />
            <mxPoint x="460" y="310" as="targetPoint" />
          </mxGeometry>
        </mxCell>
        <mxCell id="-R8Ti65tcRxn50G6-DV9-10" value="CAN Communication" style="edgeLabel;html=1;align=center;verticalAlign=middle;resizable=0;points=[];fontSize=16;" vertex="1" connectable="0" parent="-R8Ti65tcRxn50G6-DV9-9">
          <mxGeometry x="0.0545" y="4" relative="1" as="geometry">
            <mxPoint x="-14" y="3" as="offset" />
          </mxGeometry>
        </mxCell>
        <mxCell id="-R8Ti65tcRxn50G6-DV9-11" value="Relay-piloting Compact DAQ" style="rounded=1;whiteSpace=wrap;html=1;fontSize=16;fillColor=#f5f5f5;fontColor=#333333;strokeColor=#666666;" vertex="1" parent="1">
          <mxGeometry x="480" y="190" width="120" height="60" as="geometry" />
        </mxCell>
        <mxCell id="-R8Ti65tcRxn50G6-DV9-13" value="" style="endArrow=none;html=1;rounded=0;exitX=0;exitY=0.5;exitDx=0;exitDy=0;entryX=1;entryY=0.5;entryDx=0;entryDy=0;strokeWidth=2;endFill=0;" edge="1" parent="1" source="-R8Ti65tcRxn50G6-DV9-11" target="-R8Ti65tcRxn50G6-DV9-18">
          <mxGeometry width="50" height="50" relative="1" as="geometry">
            <mxPoint x="390" y="390" as="sourcePoint" />
            <mxPoint x="370" y="220" as="targetPoint" />
          </mxGeometry>
        </mxCell>
        <mxCell id="-R8Ti65tcRxn50G6-DV9-14" value="Relay" style="text;html=1;align=center;verticalAlign=middle;whiteSpace=wrap;rounded=0;rotation=55;fontSize=17;" vertex="1" parent="1">
          <mxGeometry x="291" y="200" width="60" height="30" as="geometry" />
        </mxCell>
        <mxCell id="-R8Ti65tcRxn50G6-DV9-17" value="" style="curved=1;endArrow=none;html=1;rounded=0;endFill=0;exitX=0;exitY=0.25;exitDx=0;exitDy=0;entryX=1;entryY=0.5;entryDx=0;entryDy=0;strokeWidth=2;" edge="1" parent="1" source="-R8Ti65tcRxn50G6-DV9-1" target="-R8Ti65tcRxn50G6-DV9-11">
          <mxGeometry width="50" height="50" relative="1" as="geometry">
            <mxPoint x="710" y="280" as="sourcePoint" />
            <mxPoint x="660" y="330" as="targetPoint" />
            <Array as="points">
              <mxPoint x="640" y="280" />
              <mxPoint x="630" y="220" />
            </Array>
          </mxGeometry>
        </mxCell>
        <mxCell id="-R8Ti65tcRxn50G6-DV9-18" value="LED" style="rounded=1;whiteSpace=wrap;html=1;" vertex="1" parent="1">
          <mxGeometry x="386" y="210" width="56" height="20" as="geometry" />
        </mxCell>
        <mxCell id="-R8Ti65tcRxn50G6-DV9-19" value="" style="endArrow=classic;html=1;rounded=0;exitX=0;exitY=0.5;exitDx=0;exitDy=0;strokeWidth=2;" edge="1" parent="1" source="-R8Ti65tcRxn50G6-DV9-18">
          <mxGeometry width="50" height="50" relative="1" as="geometry">
            <mxPoint x="450" y="290" as="sourcePoint" />
            <mxPoint x="340" y="220" as="targetPoint" />
          </mxGeometry>
        </mxCell>
      </root>
    </mxGraphModel>
  </diagram>
</mxfile>
